<mxfile host="app.diagrams.net" modified="2022-03-27T17:58:31.789Z" agent="5.0 (Windows NT 10.0; Win64; x64) AppleWebKit/537.36 (KHTML, like Gecko) Chrome/99.0.4844.82 Safari/537.36" etag="zoTcakmcMlA8ZXis8qXw" version="17.2.4" type="github">
  <diagram id="RAr_b3olhJMqBz3pN34O" name="Page-1">
    <mxGraphModel dx="2078" dy="983" grid="1" gridSize="10" guides="1" tooltips="1" connect="1" arrows="1" fold="1" page="1" pageScale="1" pageWidth="850" pageHeight="1100" math="0" shadow="0">
      <root>
        <mxCell id="0" />
        <mxCell id="1" parent="0" />
        <mxCell id="61tEK-UeMne0tNiwPqiA-2" value="" style="html=1;points=[];perimeter=orthogonalPerimeter;" parent="1" vertex="1">
          <mxGeometry x="130" y="200" width="20" height="80" as="geometry" />
        </mxCell>
        <mxCell id="61tEK-UeMne0tNiwPqiA-3" value=":Reader" style="shape=umlLifeline;perimeter=lifelinePerimeter;whiteSpace=wrap;html=1;container=1;collapsible=0;recursiveResize=0;outlineConnect=0;" parent="1" vertex="1">
          <mxGeometry x="320" y="80" width="80" height="120" as="geometry" />
        </mxCell>
        <mxCell id="61tEK-UeMne0tNiwPqiA-4" value="" style="shape=umlLifeline;participant=umlActor;perimeter=lifelinePerimeter;whiteSpace=wrap;html=1;container=1;collapsible=0;recursiveResize=0;verticalAlign=top;spacingTop=36;outlineConnect=0;" parent="1" vertex="1">
          <mxGeometry x="130" y="80" width="20" height="120" as="geometry" />
        </mxCell>
        <mxCell id="61tEK-UeMne0tNiwPqiA-5" value="" style="html=1;points=[];perimeter=orthogonalPerimeter;" parent="1" vertex="1">
          <mxGeometry x="350" y="200" width="20" height="160" as="geometry" />
        </mxCell>
        <mxCell id="61tEK-UeMne0tNiwPqiA-8" value=":Calculator" style="shape=umlLifeline;perimeter=lifelinePerimeter;whiteSpace=wrap;html=1;container=1;collapsible=0;recursiveResize=0;outlineConnect=0;" parent="1" vertex="1">
          <mxGeometry x="480" y="80" width="80" height="120" as="geometry" />
        </mxCell>
        <mxCell id="61tEK-UeMne0tNiwPqiA-9" value="" style="html=1;points=[];perimeter=orthogonalPerimeter;" parent="1" vertex="1">
          <mxGeometry x="510" y="200" width="20" height="320" as="geometry" />
        </mxCell>
        <mxCell id="61tEK-UeMne0tNiwPqiA-10" value=":Plus()" style="shape=umlLifeline;perimeter=lifelinePerimeter;whiteSpace=wrap;html=1;container=1;collapsible=0;recursiveResize=0;outlineConnect=0;" parent="1" vertex="1">
          <mxGeometry x="640" y="120" width="80" height="380" as="geometry" />
        </mxCell>
        <mxCell id="61tEK-UeMne0tNiwPqiA-13" value="(+ 2 (*&amp;nbsp; 3 (^ 2 2)))" style="html=1;verticalAlign=bottom;endArrow=block;rounded=0;" parent="61tEK-UeMne0tNiwPqiA-10" edge="1">
          <mxGeometry width="80" relative="1" as="geometry">
            <mxPoint x="-110" y="160" as="sourcePoint" />
            <mxPoint x="30" y="160" as="targetPoint" />
          </mxGeometry>
        </mxCell>
        <mxCell id="61tEK-UeMne0tNiwPqiA-14" value="(+ 2 (*&amp;nbsp; 3 4))" style="html=1;verticalAlign=bottom;endArrow=block;rounded=0;" parent="61tEK-UeMne0tNiwPqiA-10" edge="1">
          <mxGeometry width="80" relative="1" as="geometry">
            <mxPoint x="30" y="200" as="sourcePoint" />
            <mxPoint x="-110" y="199.9999999999999" as="targetPoint" />
          </mxGeometry>
        </mxCell>
        <mxCell id="o_O-GjPU-cILa7kB3J1c-23" value="(+ 2 12)" style="html=1;verticalAlign=bottom;endArrow=block;rounded=0;" edge="1" parent="61tEK-UeMne0tNiwPqiA-10">
          <mxGeometry width="80" relative="1" as="geometry">
            <mxPoint x="30" y="280" as="sourcePoint" />
            <mxPoint x="-110" y="280" as="targetPoint" />
          </mxGeometry>
        </mxCell>
        <mxCell id="o_O-GjPU-cILa7kB3J1c-24" value="(+ 2 (*&amp;nbsp; 3 4))" style="html=1;verticalAlign=bottom;endArrow=block;rounded=0;" edge="1" parent="61tEK-UeMne0tNiwPqiA-10">
          <mxGeometry width="80" relative="1" as="geometry">
            <mxPoint x="-110" y="239.9999999999999" as="sourcePoint" />
            <mxPoint x="30" y="240" as="targetPoint" />
          </mxGeometry>
        </mxCell>
        <mxCell id="o_O-GjPU-cILa7kB3J1c-25" value="14" style="html=1;verticalAlign=bottom;endArrow=block;rounded=0;" edge="1" parent="61tEK-UeMne0tNiwPqiA-10">
          <mxGeometry width="80" relative="1" as="geometry">
            <mxPoint x="30" y="360" as="sourcePoint" />
            <mxPoint x="-110" y="360" as="targetPoint" />
          </mxGeometry>
        </mxCell>
        <mxCell id="o_O-GjPU-cILa7kB3J1c-26" value="(+ 2 12)" style="html=1;verticalAlign=bottom;endArrow=block;rounded=0;" edge="1" parent="61tEK-UeMne0tNiwPqiA-10">
          <mxGeometry width="80" relative="1" as="geometry">
            <mxPoint x="-110" y="320" as="sourcePoint" />
            <mxPoint x="30" y="320" as="targetPoint" />
          </mxGeometry>
        </mxCell>
        <mxCell id="61tEK-UeMne0tNiwPqiA-11" value="" style="html=1;points=[];perimeter=orthogonalPerimeter;" parent="61tEK-UeMne0tNiwPqiA-10" vertex="1">
          <mxGeometry x="30" y="140" width="20" height="240" as="geometry" />
        </mxCell>
        <mxCell id="61tEK-UeMne0tNiwPqiA-12" value="(+ 2 (*&amp;nbsp; 3 (^ 2 2)))" style="html=1;verticalAlign=bottom;endArrow=block;rounded=0;" parent="1" target="61tEK-UeMne0tNiwPqiA-9" edge="1">
          <mxGeometry width="80" relative="1" as="geometry">
            <mxPoint x="370" y="240" as="sourcePoint" />
            <mxPoint x="470" y="240" as="targetPoint" />
          </mxGeometry>
        </mxCell>
        <mxCell id="61tEK-UeMne0tNiwPqiA-15" value="14" style="html=1;verticalAlign=bottom;endArrow=block;rounded=0;" parent="1" edge="1" target="61tEK-UeMne0tNiwPqiA-5" source="61tEK-UeMne0tNiwPqiA-9">
          <mxGeometry width="80" relative="1" as="geometry">
            <mxPoint x="500" y="460" as="sourcePoint" />
            <mxPoint x="370" y="320" as="targetPoint" />
            <Array as="points">
              <mxPoint x="440" y="460" />
              <mxPoint x="440" y="280" />
            </Array>
          </mxGeometry>
        </mxCell>
        <mxCell id="61tEK-UeMne0tNiwPqiA-16" value="14" style="html=1;verticalAlign=bottom;endArrow=block;rounded=0;entryX=1.063;entryY=0.75;entryDx=0;entryDy=0;entryPerimeter=0;" parent="1" target="61tEK-UeMne0tNiwPqiA-2" edge="1" source="61tEK-UeMne0tNiwPqiA-5">
          <mxGeometry width="80" relative="1" as="geometry">
            <mxPoint x="310" y="260" as="sourcePoint" />
            <mxPoint x="180" y="260" as="targetPoint" />
          </mxGeometry>
        </mxCell>
        <mxCell id="o_O-GjPU-cILa7kB3J1c-7" value="Arithmetic" style="shape=umlFrame;whiteSpace=wrap;html=1;width=80;height=30;" vertex="1" parent="1">
          <mxGeometry x="80" y="40" width="680" height="520" as="geometry" />
        </mxCell>
        <mxCell id="61tEK-UeMne0tNiwPqiA-17" value="(+ 2 (*&amp;nbsp; 3 (^ 2 2)))" style="html=1;verticalAlign=bottom;endArrow=block;rounded=0;entryX=-0.104;entryY=0.125;entryDx=0;entryDy=0;entryPerimeter=0;" parent="1" source="61tEK-UeMne0tNiwPqiA-2" target="61tEK-UeMne0tNiwPqiA-5" edge="1">
          <mxGeometry width="80" relative="1" as="geometry">
            <mxPoint x="160" y="220" as="sourcePoint" />
            <mxPoint x="290" y="220" as="targetPoint" />
          </mxGeometry>
        </mxCell>
        <mxCell id="o_O-GjPU-cILa7kB3J1c-8" value="" style="html=1;points=[];perimeter=orthogonalPerimeter;" vertex="1" parent="1">
          <mxGeometry x="130" y="720" width="20" height="80" as="geometry" />
        </mxCell>
        <mxCell id="o_O-GjPU-cILa7kB3J1c-9" value=":Reader" style="shape=umlLifeline;perimeter=lifelinePerimeter;whiteSpace=wrap;html=1;container=1;collapsible=0;recursiveResize=0;outlineConnect=0;" vertex="1" parent="1">
          <mxGeometry x="320" y="600" width="80" height="120" as="geometry" />
        </mxCell>
        <mxCell id="o_O-GjPU-cILa7kB3J1c-10" value="" style="shape=umlLifeline;participant=umlActor;perimeter=lifelinePerimeter;whiteSpace=wrap;html=1;container=1;collapsible=0;recursiveResize=0;verticalAlign=top;spacingTop=36;outlineConnect=0;" vertex="1" parent="1">
          <mxGeometry x="130" y="600" width="20" height="120" as="geometry" />
        </mxCell>
        <mxCell id="o_O-GjPU-cILa7kB3J1c-11" value="" style="html=1;points=[];perimeter=orthogonalPerimeter;" vertex="1" parent="1">
          <mxGeometry x="350" y="720" width="20" height="120" as="geometry" />
        </mxCell>
        <mxCell id="o_O-GjPU-cILa7kB3J1c-12" value=":Calculator" style="shape=umlLifeline;perimeter=lifelinePerimeter;whiteSpace=wrap;html=1;container=1;collapsible=0;recursiveResize=0;outlineConnect=0;" vertex="1" parent="1">
          <mxGeometry x="480" y="600" width="80" height="120" as="geometry" />
        </mxCell>
        <mxCell id="o_O-GjPU-cILa7kB3J1c-13" value="" style="html=1;points=[];perimeter=orthogonalPerimeter;" vertex="1" parent="1">
          <mxGeometry x="510" y="720" width="20" height="120" as="geometry" />
        </mxCell>
        <mxCell id="o_O-GjPU-cILa7kB3J1c-14" value=":SmallerThan()" style="shape=umlLifeline;perimeter=lifelinePerimeter;whiteSpace=wrap;html=1;container=1;collapsible=0;recursiveResize=0;outlineConnect=0;" vertex="1" parent="1">
          <mxGeometry x="630" y="640" width="100" height="160" as="geometry" />
        </mxCell>
        <mxCell id="o_O-GjPU-cILa7kB3J1c-15" value="" style="html=1;points=[];perimeter=orthogonalPerimeter;" vertex="1" parent="1">
          <mxGeometry x="670" y="760" width="20" height="80" as="geometry" />
        </mxCell>
        <mxCell id="o_O-GjPU-cILa7kB3J1c-16" value="(&amp;gt; 2 3)" style="html=1;verticalAlign=bottom;endArrow=block;rounded=0;" edge="1" parent="1" target="o_O-GjPU-cILa7kB3J1c-13">
          <mxGeometry width="80" relative="1" as="geometry">
            <mxPoint x="370" y="760" as="sourcePoint" />
            <mxPoint x="470" y="760" as="targetPoint" />
          </mxGeometry>
        </mxCell>
        <mxCell id="o_O-GjPU-cILa7kB3J1c-17" value="(&amp;gt; 2 3)" style="html=1;verticalAlign=bottom;endArrow=block;rounded=0;entryX=-0.002;entryY=0.243;entryDx=0;entryDy=0;entryPerimeter=0;" edge="1" parent="1" source="o_O-GjPU-cILa7kB3J1c-13" target="o_O-GjPU-cILa7kB3J1c-15">
          <mxGeometry width="80" relative="1" as="geometry">
            <mxPoint x="540" y="780" as="sourcePoint" />
            <mxPoint x="620" y="780" as="targetPoint" />
          </mxGeometry>
        </mxCell>
        <mxCell id="o_O-GjPU-cILa7kB3J1c-18" value="false" style="html=1;verticalAlign=bottom;endArrow=block;rounded=0;exitX=0;exitY=0.75;exitDx=0;exitDy=0;exitPerimeter=0;" edge="1" parent="1" target="o_O-GjPU-cILa7kB3J1c-13" source="o_O-GjPU-cILa7kB3J1c-15">
          <mxGeometry width="80" relative="1" as="geometry">
            <mxPoint x="660" y="820" as="sourcePoint" />
            <mxPoint x="570" y="820" as="targetPoint" />
          </mxGeometry>
        </mxCell>
        <mxCell id="o_O-GjPU-cILa7kB3J1c-19" value="false" style="html=1;verticalAlign=bottom;endArrow=block;rounded=0;exitX=0;exitY=0.667;exitDx=0;exitDy=0;exitPerimeter=0;" edge="1" parent="1" source="o_O-GjPU-cILa7kB3J1c-13" target="o_O-GjPU-cILa7kB3J1c-11">
          <mxGeometry width="80" relative="1" as="geometry">
            <mxPoint x="480" y="800" as="sourcePoint" />
            <mxPoint x="380" y="800" as="targetPoint" />
          </mxGeometry>
        </mxCell>
        <mxCell id="o_O-GjPU-cILa7kB3J1c-22" value="Comparison" style="shape=umlFrame;whiteSpace=wrap;html=1;width=80;height=30;" vertex="1" parent="1">
          <mxGeometry x="80" y="560" width="680" height="320" as="geometry" />
        </mxCell>
        <mxCell id="o_O-GjPU-cILa7kB3J1c-20" value="false" style="html=1;verticalAlign=bottom;endArrow=block;rounded=0;entryX=1.063;entryY=0.75;entryDx=0;entryDy=0;entryPerimeter=0;" edge="1" parent="1" target="o_O-GjPU-cILa7kB3J1c-8" source="o_O-GjPU-cILa7kB3J1c-11">
          <mxGeometry width="80" relative="1" as="geometry">
            <mxPoint x="310" y="780" as="sourcePoint" />
            <mxPoint x="180" y="780" as="targetPoint" />
          </mxGeometry>
        </mxCell>
        <mxCell id="o_O-GjPU-cILa7kB3J1c-21" value="Add Instructions: (&amp;gt; 2 3)" style="html=1;verticalAlign=bottom;endArrow=block;rounded=0;exitX=0.99;exitY=0.25;exitDx=0;exitDy=0;exitPerimeter=0;" edge="1" parent="1" source="o_O-GjPU-cILa7kB3J1c-8" target="o_O-GjPU-cILa7kB3J1c-11">
          <mxGeometry width="80" relative="1" as="geometry">
            <mxPoint x="160" y="740" as="sourcePoint" />
            <mxPoint x="310" y="740" as="targetPoint" />
          </mxGeometry>
        </mxCell>
        <mxCell id="o_O-GjPU-cILa7kB3J1c-27" value="" style="html=1;points=[];perimeter=orthogonalPerimeter;" vertex="1" parent="1">
          <mxGeometry x="810" y="200" width="20" height="80" as="geometry" />
        </mxCell>
        <mxCell id="o_O-GjPU-cILa7kB3J1c-28" value=":Reader" style="shape=umlLifeline;perimeter=lifelinePerimeter;whiteSpace=wrap;html=1;container=1;collapsible=0;recursiveResize=0;outlineConnect=0;" vertex="1" parent="1">
          <mxGeometry x="1000" y="80" width="80" height="120" as="geometry" />
        </mxCell>
        <mxCell id="o_O-GjPU-cILa7kB3J1c-29" value="" style="shape=umlLifeline;participant=umlActor;perimeter=lifelinePerimeter;whiteSpace=wrap;html=1;container=1;collapsible=0;recursiveResize=0;verticalAlign=top;spacingTop=36;outlineConnect=0;" vertex="1" parent="1">
          <mxGeometry x="810" y="80" width="20" height="120" as="geometry" />
        </mxCell>
        <mxCell id="o_O-GjPU-cILa7kB3J1c-30" value="" style="html=1;points=[];perimeter=orthogonalPerimeter;" vertex="1" parent="1">
          <mxGeometry x="1030" y="200" width="20" height="160" as="geometry" />
        </mxCell>
        <mxCell id="o_O-GjPU-cILa7kB3J1c-31" value=":Calculator" style="shape=umlLifeline;perimeter=lifelinePerimeter;whiteSpace=wrap;html=1;container=1;collapsible=0;recursiveResize=0;outlineConnect=0;" vertex="1" parent="1">
          <mxGeometry x="1160" y="80" width="80" height="120" as="geometry" />
        </mxCell>
        <mxCell id="o_O-GjPU-cILa7kB3J1c-32" value="" style="html=1;points=[];perimeter=orthogonalPerimeter;" vertex="1" parent="1">
          <mxGeometry x="1190" y="200" width="20" height="320" as="geometry" />
        </mxCell>
        <mxCell id="o_O-GjPU-cILa7kB3J1c-33" value=":Plus()" style="shape=umlLifeline;perimeter=lifelinePerimeter;whiteSpace=wrap;html=1;container=1;collapsible=0;recursiveResize=0;outlineConnect=0;" vertex="1" parent="1">
          <mxGeometry x="1320" y="120" width="80" height="380" as="geometry" />
        </mxCell>
        <mxCell id="o_O-GjPU-cILa7kB3J1c-34" value="(+ 2 (*&amp;nbsp; 3 (^ 2 2)))" style="html=1;verticalAlign=bottom;endArrow=block;rounded=0;" edge="1" parent="o_O-GjPU-cILa7kB3J1c-33">
          <mxGeometry width="80" relative="1" as="geometry">
            <mxPoint x="-110" y="160" as="sourcePoint" />
            <mxPoint x="30" y="160" as="targetPoint" />
          </mxGeometry>
        </mxCell>
        <mxCell id="o_O-GjPU-cILa7kB3J1c-35" value="(+ 2 (*&amp;nbsp; 3 4))" style="html=1;verticalAlign=bottom;endArrow=block;rounded=0;" edge="1" parent="o_O-GjPU-cILa7kB3J1c-33">
          <mxGeometry width="80" relative="1" as="geometry">
            <mxPoint x="30" y="200" as="sourcePoint" />
            <mxPoint x="-110" y="199.9999999999999" as="targetPoint" />
          </mxGeometry>
        </mxCell>
        <mxCell id="o_O-GjPU-cILa7kB3J1c-36" value="(+ 2 12)" style="html=1;verticalAlign=bottom;endArrow=block;rounded=0;" edge="1" parent="o_O-GjPU-cILa7kB3J1c-33">
          <mxGeometry width="80" relative="1" as="geometry">
            <mxPoint x="30" y="280" as="sourcePoint" />
            <mxPoint x="-110" y="280" as="targetPoint" />
          </mxGeometry>
        </mxCell>
        <mxCell id="o_O-GjPU-cILa7kB3J1c-37" value="(+ 2 (*&amp;nbsp; 3 4))" style="html=1;verticalAlign=bottom;endArrow=block;rounded=0;" edge="1" parent="o_O-GjPU-cILa7kB3J1c-33">
          <mxGeometry width="80" relative="1" as="geometry">
            <mxPoint x="-110" y="239.9999999999999" as="sourcePoint" />
            <mxPoint x="30" y="240" as="targetPoint" />
          </mxGeometry>
        </mxCell>
        <mxCell id="o_O-GjPU-cILa7kB3J1c-38" value="14" style="html=1;verticalAlign=bottom;endArrow=block;rounded=0;" edge="1" parent="o_O-GjPU-cILa7kB3J1c-33">
          <mxGeometry width="80" relative="1" as="geometry">
            <mxPoint x="30" y="360" as="sourcePoint" />
            <mxPoint x="-110" y="360" as="targetPoint" />
          </mxGeometry>
        </mxCell>
        <mxCell id="o_O-GjPU-cILa7kB3J1c-39" value="(+ 2 12)" style="html=1;verticalAlign=bottom;endArrow=block;rounded=0;" edge="1" parent="o_O-GjPU-cILa7kB3J1c-33">
          <mxGeometry width="80" relative="1" as="geometry">
            <mxPoint x="-110" y="320" as="sourcePoint" />
            <mxPoint x="30" y="320" as="targetPoint" />
          </mxGeometry>
        </mxCell>
        <mxCell id="o_O-GjPU-cILa7kB3J1c-40" value="" style="html=1;points=[];perimeter=orthogonalPerimeter;" vertex="1" parent="o_O-GjPU-cILa7kB3J1c-33">
          <mxGeometry x="30" y="140" width="20" height="240" as="geometry" />
        </mxCell>
        <mxCell id="o_O-GjPU-cILa7kB3J1c-41" value="(+ 2 (*&amp;nbsp; 3 (^ 2 2)))" style="html=1;verticalAlign=bottom;endArrow=block;rounded=0;" edge="1" parent="1" target="o_O-GjPU-cILa7kB3J1c-32">
          <mxGeometry width="80" relative="1" as="geometry">
            <mxPoint x="1050" y="240" as="sourcePoint" />
            <mxPoint x="1150" y="240" as="targetPoint" />
          </mxGeometry>
        </mxCell>
        <mxCell id="o_O-GjPU-cILa7kB3J1c-42" value="14" style="html=1;verticalAlign=bottom;endArrow=block;rounded=0;" edge="1" parent="1" source="o_O-GjPU-cILa7kB3J1c-32" target="o_O-GjPU-cILa7kB3J1c-30">
          <mxGeometry width="80" relative="1" as="geometry">
            <mxPoint x="1180" y="460" as="sourcePoint" />
            <mxPoint x="1050" y="320" as="targetPoint" />
            <Array as="points">
              <mxPoint x="1120" y="460" />
              <mxPoint x="1120" y="280" />
            </Array>
          </mxGeometry>
        </mxCell>
        <mxCell id="o_O-GjPU-cILa7kB3J1c-43" value="14" style="html=1;verticalAlign=bottom;endArrow=block;rounded=0;entryX=1.063;entryY=0.75;entryDx=0;entryDy=0;entryPerimeter=0;" edge="1" parent="1" source="o_O-GjPU-cILa7kB3J1c-30" target="o_O-GjPU-cILa7kB3J1c-27">
          <mxGeometry width="80" relative="1" as="geometry">
            <mxPoint x="990" y="260" as="sourcePoint" />
            <mxPoint x="860" y="260" as="targetPoint" />
          </mxGeometry>
        </mxCell>
        <mxCell id="o_O-GjPU-cILa7kB3J1c-44" value="Arithmetic" style="shape=umlFrame;whiteSpace=wrap;html=1;width=80;height=30;" vertex="1" parent="1">
          <mxGeometry x="760" y="40" width="680" height="520" as="geometry" />
        </mxCell>
        <mxCell id="o_O-GjPU-cILa7kB3J1c-45" value="(+ 2 (*&amp;nbsp; 3 (^ 2 2)))" style="html=1;verticalAlign=bottom;endArrow=block;rounded=0;entryX=-0.104;entryY=0.125;entryDx=0;entryDy=0;entryPerimeter=0;" edge="1" parent="1" source="o_O-GjPU-cILa7kB3J1c-27" target="o_O-GjPU-cILa7kB3J1c-30">
          <mxGeometry width="80" relative="1" as="geometry">
            <mxPoint x="840" y="220" as="sourcePoint" />
            <mxPoint x="970" y="220" as="targetPoint" />
          </mxGeometry>
        </mxCell>
      </root>
    </mxGraphModel>
  </diagram>
</mxfile>
